<svg width="52" height="53" viewBox="0 0 52 53" fill="none" xmlns="http://www.w3.org/2000/svg">
<rect width="52" height="52" rx="26" fill="white"/>
<path d="M52 40.4182C52 46.7955 46.7834 52.0132 40.4083 52.0132H11.5916C5.21618 52.0132 0 46.7955 0 40.4182V11.595C0 5.21769 5.21618 7.62939e-06 11.5916 7.62939e-06H40.4083C46.7834 7.62939e-06 52 5.21769 52 11.595V40.4182Z" fill="#3CC6F1"/>
<path d="M51.9999 40.4178V23.2211L29.6126 7.83841L25.224 11.3516L21.1073 8.68147L18.3933 12.9412L21.7293 29.4658L25.5419 33.5976L24.7475 39.0788L12.7533 42.4837L28.5957 52.0132H40.4082C46.7834 52.0132 51.9999 46.7956 51.9999 40.4178Z" fill="#3CC6F1"/>
<path d="M13.6608 43.0894C13.6425 43.0775 13.6236 43.0645 13.606 43.0527C13.6242 43.0645 13.6425 43.0763 13.6608 43.0894Z" fill="white"/>
<path d="M14.8103 43.812C14.6445 43.7132 14.4873 43.6187 14.3402 43.5275C14.4954 43.6241 14.6526 43.7186 14.8103 43.812Z" fill="white"/>
<path d="M15.5785 44.2495C15.4924 44.2019 15.407 44.1553 15.3247 44.1088C15.4095 44.1553 15.4933 44.203 15.5785 44.2495Z" fill="white"/>
<path d="M14.3402 43.5266C14.1101 43.3829 13.8806 43.2392 13.6564 43.0878C13.8529 43.2185 14.0813 43.3666 14.3402 43.5266Z" fill="white"/>
<path d="M15.3247 44.1067C15.1515 44.0102 14.9806 43.9104 14.8103 43.8107C14.9725 43.9072 15.1445 44.0058 15.3247 44.1067Z" fill="white"/>
<path d="M12.8026 42.4856C12.8026 42.4856 13.0855 42.7074 13.6058 43.0559C13.3334 42.8713 13.0664 42.6801 12.8026 42.4845V42.4856Z" fill="white"/>
<path d="M35.1599 18.7833C34.946 18.7525 34.7276 18.8461 34.527 19.0346C34.0868 13.9044 30.6743 11.5553 26.3267 11.5553C26.1979 11.5553 26.0706 11.5592 25.9424 11.563C21.7409 11.6989 18.1855 14.0788 17.7415 19.1051C17.5336 18.7974 17.2861 18.6243 17.0369 18.6474C16.4757 18.7025 16.1169 19.7373 16.2354 20.9605C16.3541 22.1825 16.9047 23.1301 17.4651 23.0749C17.6458 23.0583 17.8051 22.9377 17.9351 22.7441C18.8205 27.3679 22.0579 30.8184 25.9424 30.9286C26.0068 30.9312 26.0706 30.9351 26.1348 30.9351C29.9859 30.9351 33.2335 27.6525 34.2471 23.1647C34.3266 23.2198 34.4111 23.2557 34.5034 23.2686C35.1147 23.3596 35.7573 22.4274 35.9389 21.1888C36.1202 19.9501 35.7712 18.873 35.1599 18.7833Z" fill="white"/>
<path d="M34.5747 33.857V37.7507H31.641V32.2284C31.3385 32.1285 31.0244 32.0437 30.6988 31.974L30.0961 31.2956C29.0122 31.8369 27.6411 32.161 26.1505 32.161C24.5904 32.161 23.1626 31.8067 22.0567 31.219L21.3855 31.974L21.5188 32.1157C21.2918 32.1622 20.9191 32.2516 20.4526 32.4073V37.7507H17.5189V33.8825C15.4385 35.3415 13.2699 37.9307 12.7533 42.4831C13.0172 42.6794 13.2836 42.8699 13.556 43.0546C13.5728 43.0662 13.5897 43.0778 13.6071 43.0883C13.8314 43.2393 14.061 43.3833 14.2909 43.5274C14.438 43.618 14.5946 43.7133 14.7615 43.8108C14.9314 43.9107 15.1024 44.0106 15.2755 44.107C15.3584 44.1535 15.4432 44.2 15.5289 44.2476C15.9779 44.4892 16.4365 44.7157 16.9023 44.9271V38.2676H35.5396V44.9585C36.8637 44.3638 38.1215 43.647 39.2978 42.82C39.3117 42.8084 39.3263 42.7979 39.3402 42.7863C39.3402 42.7863 38.4518 37.056 34.5747 33.857Z" fill="white"/>
<path d="M20.4525 37.7498V32.4064C19.6619 32.6696 18.6027 33.1209 17.5188 33.8816L16.9256 37.7498H20.4525Z" fill="white"/>
<path d="M35.5739 37.7498L34.5747 33.8571C33.7412 33.1697 32.7705 32.6 31.641 32.228V37.7498H35.5739Z" fill="white"/>
<path d="M19.4758 38.8962H18.3257C17.9442 38.8962 17.6354 39.206 17.6354 39.5872V39.702C17.6354 40.0831 17.9442 40.3918 18.3257 40.3918H19.4758C19.8567 40.3918 20.1661 40.0831 20.1661 39.702V39.5872C20.1661 39.206 19.8567 38.8962 19.4758 38.8962Z" fill="white"/>
<path d="M34.8921 39.584C34.8921 39.9654 34.5828 40.2752 34.2019 40.2752H33.0518C32.6703 40.2752 32.3608 39.9654 32.3608 39.584V39.4688C32.3608 39.0875 32.6703 38.7788 33.0518 38.7788H34.2019C34.5828 38.7788 34.8921 39.0875 34.8921 39.4688V39.584ZM20.1661 39.6992C20.1661 40.0806 19.8569 40.3892 19.4759 40.3892H18.3257C17.9442 40.3892 17.6355 40.0806 17.6355 39.6992V39.584C17.6355 39.2027 17.9442 38.894 18.3257 38.894H19.4759C19.8569 38.894 20.1661 39.2027 20.1661 39.584V39.6992ZM25.9453 38.2666H16.9023V44.9253C19.5097 46.1063 22.3796 46.8075 25.4007 46.9205C25.5819 46.9272 25.7629 46.9339 25.9453 46.9384C26.0504 46.9406 26.1563 46.9429 26.2619 46.9429C26.4391 46.9429 26.6141 46.9328 26.7898 46.9294C29.9023 46.8579 32.8579 46.16 35.5395 44.9578V38.2666H25.9453Z" fill="white"/>
<path d="M34.2019 38.7813H33.0517C32.6701 38.7813 32.3607 39.0903 32.3607 39.4717V39.5865C32.3607 39.9679 32.6701 40.2769 33.0517 40.2769H34.2019C34.5827 40.2769 34.8921 39.9679 34.8921 39.5865V39.4717C34.8921 39.0903 34.5827 38.7813 34.2019 38.7813Z" fill="white"/>
<path d="M35.4601 15.9795L35.3994 16.0332C35.1477 15.0964 33.8537 10.863 30.4768 8.68147L29.1943 12.8231C29.0127 10.5525 29.3397 8.66968 29.6127 7.83899C28.5312 7.31228 27.2662 6.9952 25.7935 7.0201V17.8479H25.7914V7.0201C24.318 6.9952 23.0535 7.31228 21.9719 7.83899C22.2455 8.66968 22.5724 10.5525 22.3906 12.8231L21.1074 8.68147C17.7309 10.863 16.437 15.0964 16.1855 16.0332L16.1252 15.9795C16.1252 15.9795 14.831 16.0463 14.6028 18.1807L18.7127 20.2495H25.6412H25.9432H32.872L36.982 18.1807C36.7537 16.0463 35.4601 15.9795 35.4601 15.9795Z" fill="white"/>
</svg>
