<svg width="98" height="40" viewBox="0 0 98 40" fill="none" xmlns="http://www.w3.org/2000/svg">
<path d="M47.437 14.3999C46.9236 14.3999 46.4828 14.3118 46.1146 14.1357C45.7464 13.9543 45.4431 13.7186 45.2045 13.4284C44.966 13.1331 44.7896 12.8144 44.6756 12.4724C44.5615 12.1305 44.5044 11.7989 44.5044 11.4776V11.3066C44.5044 10.9491 44.5615 10.5994 44.6756 10.2574C44.7948 9.91026 44.9737 9.59679 45.2123 9.317C45.456 9.03721 45.7594 8.81441 46.1224 8.64861C46.4854 8.4828 46.9106 8.3999 47.3981 8.3999C47.9167 8.3999 48.3756 8.49835 48.7749 8.69524C49.1794 8.88695 49.5035 9.15897 49.7473 9.5113C49.991 9.85845 50.1336 10.2626 50.1751 10.7237H48.7283C48.692 10.5268 48.6142 10.3559 48.4949 10.2108C48.3756 10.0657 48.2226 9.95431 48.036 9.87659C47.8493 9.79368 47.6366 9.75223 47.3981 9.75223C47.1751 9.75223 46.9729 9.79109 46.7914 9.86881C46.615 9.94653 46.4647 10.0579 46.3402 10.203C46.2209 10.3429 46.1276 10.5139 46.0602 10.716C45.9979 10.918 45.9668 11.146 45.9668 11.3999C45.9668 11.6538 45.9979 11.8818 46.0602 12.0838C46.1276 12.2859 46.2235 12.4595 46.348 12.6046C46.4776 12.7496 46.6332 12.861 46.8147 12.9388C46.9962 13.0113 47.2036 13.0476 47.437 13.0476C47.8 13.0476 48.106 12.9595 48.3549 12.7833C48.609 12.6072 48.762 12.3714 48.8138 12.0761H50.2607C50.214 12.5009 50.0714 12.8895 49.8328 13.2419C49.5943 13.5942 49.2728 13.8766 48.8683 14.089C48.4638 14.2963 47.9867 14.3999 47.437 14.3999Z" fill="#3CC6F1"/>
<path d="M53.9701 14.3999C53.4515 14.3999 53.0003 14.3118 52.6166 14.1357C52.2328 13.9543 51.9139 13.7186 51.6598 13.4284C51.4057 13.1331 51.2164 12.8144 51.092 12.4724C50.9675 12.1305 50.9053 11.7989 50.9053 11.4776V11.3066C50.9053 10.9491 50.9701 10.5994 51.0997 10.2574C51.2294 9.91026 51.4238 9.59679 51.6831 9.317C51.9424 9.03721 52.2614 8.81441 52.6399 8.64861C53.0237 8.4828 53.4671 8.3999 53.9701 8.3999C54.4679 8.3999 54.9061 8.4828 55.2847 8.64861C55.6684 8.81441 55.9899 9.03721 56.2492 9.317C56.5085 9.59679 56.703 9.91026 56.8326 10.2574C56.9675 10.5994 57.0349 10.9491 57.0349 11.3066V11.4776C57.0349 11.7989 56.9701 12.1305 56.8404 12.4724C56.716 12.8144 56.5267 13.1331 56.2726 13.4284C56.0185 13.7186 55.6995 13.9543 55.3158 14.1357C54.932 14.3118 54.4835 14.3999 53.9701 14.3999ZM53.9701 13.0476C54.219 13.0476 54.442 13.0061 54.639 12.9232C54.8361 12.8403 55.0046 12.7237 55.1447 12.5735C55.2847 12.4232 55.391 12.2496 55.4636 12.0528C55.5362 11.8507 55.5725 11.6331 55.5725 11.3999C55.5725 11.1512 55.5336 10.9258 55.4558 10.7237C55.3832 10.5217 55.2769 10.3481 55.1369 10.203C54.9969 10.0579 54.8283 9.94653 54.6313 9.86881C54.4342 9.79109 54.2138 9.75223 53.9701 9.75223C53.7212 9.75223 53.4982 9.79109 53.3011 9.86881C53.104 9.94653 52.9355 10.0579 52.7955 10.203C52.6555 10.3481 52.5492 10.5217 52.4766 10.7237C52.404 10.9258 52.3677 11.1512 52.3677 11.3999C52.3677 11.6331 52.404 11.8507 52.4766 12.0528C52.5492 12.2496 52.6555 12.4232 52.7955 12.5735C52.9355 12.7237 53.104 12.8403 53.3011 12.9232C53.4982 13.0061 53.7212 13.0476 53.9701 13.0476Z" fill="#3CC6F1"/>
<path d="M58.0723 14.2445V8.57089H60.4448L62.335 13.0942H62.6073L62.4517 13.2341V8.57089H63.8052V14.2445H61.4172L59.5269 9.72115H59.2547L59.4103 9.58125V14.2445H58.0723Z" fill="#3CC6F1"/>
<path d="M67.1413 14.3999C66.6124 14.3999 66.1664 14.317 65.8034 14.1512C65.4456 13.9854 65.1733 13.76 64.9866 13.475C64.8051 13.1849 64.7144 12.8533 64.7144 12.4802H66.1145C66.1145 12.6149 66.1508 12.7393 66.2234 12.8533C66.3012 12.9621 66.4153 13.0476 66.5657 13.1097C66.7161 13.1719 66.908 13.203 67.1413 13.203C67.3436 13.203 67.5147 13.1771 67.6547 13.1253C67.7999 13.0735 67.9088 13.0009 67.9814 12.9077C68.0592 12.8144 68.0981 12.703 68.0981 12.5735C68.0981 12.4077 68.0281 12.2807 67.8881 12.1926C67.7481 12.0994 67.5121 12.0398 67.1802 12.0139L66.8146 11.9828C66.2286 11.931 65.7619 11.7471 65.4144 11.431C65.067 11.1149 64.8933 10.6952 64.8933 10.1719C64.8933 9.79887 64.9788 9.48021 65.15 9.21596C65.3263 8.95172 65.5726 8.74964 65.8889 8.60975C66.2053 8.46985 66.5787 8.3999 67.0091 8.3999C67.4758 8.3999 67.8699 8.47762 68.1914 8.63306C68.5181 8.7885 68.7671 9.00871 68.9382 9.29368C69.1093 9.57348 69.1949 9.8999 69.1949 10.273H67.7947C67.7947 10.1486 67.7636 10.0346 67.7014 9.93099C67.6392 9.82736 67.5484 9.74705 67.4291 9.69006C67.315 9.62788 67.175 9.59679 67.0091 9.59679C66.8535 9.59679 66.7213 9.6227 66.6124 9.67451C66.5086 9.72115 66.4283 9.7885 66.3712 9.87659C66.3194 9.96467 66.2934 10.0631 66.2934 10.1719C66.2934 10.317 66.3427 10.4414 66.4412 10.545C66.5398 10.6486 66.7109 10.7108 66.9546 10.7315L67.3202 10.7626C67.7455 10.7989 68.1214 10.8921 68.4481 11.0424C68.7748 11.1875 69.0315 11.3869 69.2182 11.6408C69.4049 11.8947 69.4983 12.2056 69.4983 12.5735C69.4983 12.9414 69.4023 13.2626 69.2104 13.5372C69.0238 13.8118 68.7541 14.0243 68.4015 14.1745C68.054 14.3248 67.634 14.3999 67.1413 14.3999Z" fill="#3CC6F1"/>
<path d="M71.3792 14.2445V9.67451H72.826V14.2445H71.3792ZM69.8235 9.82995V8.57089H74.3818V9.82995H69.8235Z" fill="#3CC6F1"/>
<path d="M75.277 14.2445V8.52425H76.7238V14.2445H75.277ZM78.6996 14.2445L77.105 11.8351H78.6763L80.3643 14.2445H78.6996ZM76.3582 12.5035V11.3921H77.7195C77.8906 11.3921 78.0384 11.3585 78.1629 11.2911C78.2874 11.2237 78.3833 11.1279 78.4507 11.0035C78.5233 10.8792 78.5596 10.7341 78.5596 10.5683C78.5596 10.3973 78.5233 10.2496 78.4507 10.1253C78.3833 10.0009 78.2874 9.90508 78.1629 9.83773C78.0384 9.77037 77.8906 9.73669 77.7195 9.73669H76.3582V8.52425H77.6339C78.1266 8.52425 78.5518 8.59938 78.9097 8.74964C79.2675 8.89472 79.5423 9.11234 79.7342 9.40249C79.9261 9.68747 80.022 10.0424 80.022 10.4673V10.5916C80.022 11.0165 79.9235 11.3714 79.7264 11.6564C79.5345 11.9362 79.2597 12.1486 78.9019 12.2937C78.5492 12.4336 78.1266 12.5035 77.6339 12.5035H76.3582Z" fill="#3CC6F1"/>
<path d="M83.5655 14.3999C83.0209 14.3999 82.5594 14.2989 82.1808 14.0968C81.8075 13.8947 81.5223 13.6097 81.3252 13.2419C81.1281 12.8688 81.0296 12.4284 81.0296 11.9206V8.57089H82.4764V11.9517C82.4764 12.1745 82.5179 12.3688 82.6009 12.5346C82.6891 12.7004 82.8135 12.8274 82.9743 12.9154C83.135 13.0035 83.3321 13.0476 83.5655 13.0476C83.7988 13.0476 83.9959 13.0035 84.1566 12.9154C84.3174 12.8274 84.4393 12.703 84.5222 12.5424C84.6052 12.3766 84.6467 12.1797 84.6467 11.9517V8.57089H86.0935V11.9206C86.0935 12.4284 85.995 12.8688 85.7979 13.2419C85.6061 13.6097 85.3208 13.8947 84.9423 14.0968C84.5689 14.2989 84.11 14.3999 83.5655 14.3999Z" fill="#3CC6F1"/>
<path d="M89.9564 14.3999C89.443 14.3999 89.0022 14.3118 88.634 14.1357C88.2658 13.9543 87.9625 13.7186 87.7239 13.4284C87.4854 13.1331 87.3091 12.8144 87.195 12.4724C87.0809 12.1305 87.0238 11.7989 87.0238 11.4776V11.3066C87.0238 10.9491 87.0809 10.5994 87.195 10.2574C87.3142 9.91026 87.4931 9.59679 87.7317 9.317C87.9754 9.03721 88.2788 8.81441 88.6418 8.64861C89.0048 8.4828 89.43 8.3999 89.9175 8.3999C90.4361 8.3999 90.895 8.49835 91.2943 8.69524C91.6988 8.88695 92.0229 9.15897 92.2667 9.5113C92.5104 9.85845 92.653 10.2626 92.6945 10.7237H91.2477C91.2114 10.5268 91.1336 10.3559 91.0143 10.2108C90.895 10.0657 90.742 9.95431 90.5554 9.87659C90.3687 9.79368 90.1561 9.75223 89.9175 9.75223C89.6945 9.75223 89.4923 9.79109 89.3108 9.86881C89.1344 9.94653 88.9841 10.0579 88.8596 10.203C88.7403 10.3429 88.647 10.5139 88.5796 10.716C88.5173 10.918 88.4862 11.146 88.4862 11.3999C88.4862 11.6538 88.5173 11.8818 88.5796 12.0838C88.647 12.2859 88.7429 12.4595 88.8674 12.6046C88.997 12.7496 89.1526 12.861 89.3341 12.9388C89.5156 13.0113 89.723 13.0476 89.9564 13.0476C90.3194 13.0476 90.6254 12.9595 90.8743 12.7833C91.1284 12.6072 91.2814 12.3714 91.3332 12.0761H92.7801C92.7334 12.5009 92.5908 12.8895 92.3522 13.2419C92.1137 13.5942 91.7922 13.8766 91.3877 14.089C90.9832 14.2963 90.5061 14.3999 89.9564 14.3999Z" fill="#3CC6F1"/>
<path d="M94.7796 14.2445V9.67451H96.2265V14.2445H94.7796ZM93.2239 9.82995V8.57089H97.7822V9.82995H93.2239Z" fill="#3CC6F1"/>
<path d="M49.6551 31.2001C48.4478 31.2001 47.4298 31.0122 46.6013 30.6364C45.7845 30.2605 45.1631 29.7497 44.737 29.1037C44.3227 28.446 44.1156 27.6944 44.1156 26.8488H47.3115C47.3115 27.1542 47.3943 27.436 47.56 27.6944C47.7376 27.941 47.998 28.1348 48.3412 28.2757C48.6845 28.4167 49.1225 28.4871 49.6551 28.4871C50.1167 28.4871 50.5074 28.4284 50.8269 28.311C51.1584 28.1935 51.4069 28.0291 51.5727 27.8177C51.7502 27.6063 51.839 27.3538 51.839 27.0602C51.839 26.6844 51.6792 26.3966 51.3596 26.197C51.04 25.9856 50.5014 25.8505 49.7439 25.7918L48.9094 25.7213C47.5719 25.6039 46.5066 25.187 45.7135 24.4706C44.9204 23.7542 44.5239 22.8029 44.5239 21.6167C44.5239 20.7711 44.7192 20.0488 45.1098 19.4498C45.5123 18.8509 46.0745 18.3928 46.7966 18.0757C47.5186 17.7586 48.3708 17.6001 49.3533 17.6001C50.4186 17.6001 51.3182 17.7763 52.052 18.1286C52.7978 18.4809 53.3659 18.9801 53.7565 19.626C54.1471 20.2602 54.3424 21.0001 54.3424 21.8457H51.1465C51.1465 21.5638 51.0755 21.3055 50.9335 21.0706C50.7914 20.8357 50.5843 20.6536 50.3121 20.5244C50.0516 20.3835 49.7321 20.3131 49.3533 20.3131C48.9982 20.3131 48.6963 20.3718 48.4478 20.4892C48.211 20.5949 48.0276 20.7476 47.8974 20.9472C47.779 21.1469 47.7198 21.37 47.7198 21.6167C47.7198 21.9455 47.8323 22.2274 48.0572 22.4623C48.2821 22.6972 48.6727 22.8381 49.229 22.8851L50.0635 22.9555C51.0341 23.0377 51.8922 23.2491 52.638 23.5897C53.3837 23.9186 53.9696 24.3707 54.3957 24.9462C54.8218 25.5217 55.0349 26.2263 55.0349 27.0602C55.0349 27.8941 54.8159 28.6222 54.3779 29.2447C53.9518 29.8671 53.3363 30.3486 52.5314 30.6892C51.7384 31.0298 50.7796 31.2001 49.6551 31.2001Z" fill="white"/>
<path d="M65.3557 30.8478V17.9877H68.6581V30.8478H65.3557ZM57.1174 30.8478V17.9877H60.4198V30.8478H57.1174ZM59.8516 25.7918V22.9379H65.9239V25.7918H59.8516Z" fill="white"/>
<path d="M78.0144 31.2001C76.8307 31.2001 75.8009 31.0004 74.925 30.6011C74.0491 30.1901 73.3211 29.6557 72.7411 28.998C72.1611 28.3286 71.7291 27.6063 71.445 26.8312C71.1609 26.0561 71.0189 25.3044 71.0189 24.5763V24.1887C71.0189 23.3783 71.1668 22.5856 71.4628 21.8105C71.7587 21.0236 72.2025 20.3131 72.7944 19.6789C73.3862 19.0447 74.1142 18.5396 74.9782 18.1638C75.8542 17.788 76.8662 17.6001 78.0144 17.6001C79.1507 17.6001 80.1509 17.788 81.0149 18.1638C81.8909 18.5396 82.6247 19.0447 83.2166 19.6789C83.8084 20.3131 84.2523 21.0236 84.5482 21.8105C84.8559 22.5856 85.0098 23.3783 85.0098 24.1887V24.5763C85.0098 25.3044 84.8619 26.0561 84.5659 26.8312C84.2819 27.6063 83.8498 28.3286 83.2698 28.998C82.6898 29.6557 81.9619 30.1901 81.086 30.6011C80.2101 31.0004 79.1862 31.2001 78.0144 31.2001ZM78.0144 28.1348C78.5825 28.1348 79.0915 28.0409 79.5413 27.8529C79.9911 27.665 80.3758 27.4008 80.6954 27.0602C81.0149 26.7196 81.2576 26.3262 81.4233 25.8799C81.589 25.4219 81.6719 24.9286 81.6719 24.4001C81.6719 23.8364 81.5831 23.3255 81.4056 22.8675C81.2398 22.4094 80.9972 22.016 80.6776 21.6871C80.358 21.3583 79.9733 21.1058 79.5235 20.9296C79.0737 20.7535 78.5707 20.6654 78.0144 20.6654C77.4462 20.6654 76.9372 20.7535 76.4874 20.9296C76.0376 21.1058 75.6529 21.3583 75.3333 21.6871C75.0138 22.016 74.7711 22.4094 74.6054 22.8675C74.4397 23.3255 74.3568 23.8364 74.3568 24.4001C74.3568 24.9286 74.4397 25.4219 74.6054 25.8799C74.7711 26.3262 75.0138 26.7196 75.3333 27.0602C75.6529 27.4008 76.0376 27.665 76.4874 27.8529C76.9372 28.0409 77.4462 28.1348 78.0144 28.1348Z" fill="white"/>
<path d="M90.3251 27.4301V24.6115H92.4557C92.8582 24.6115 93.2073 24.5352 93.5033 24.3825C93.7992 24.2181 94.03 23.989 94.1957 23.6954C94.3614 23.4018 94.4443 23.0554 94.4443 22.6561C94.4443 22.245 94.3614 21.8927 94.1957 21.5991C94.03 21.3055 93.7992 21.0823 93.5033 20.9296C93.2073 20.777 92.8582 20.7006 92.4557 20.7006H90.3251V17.882H92.3669C93.4796 17.882 94.4384 18.0699 95.2433 18.4457C96.06 18.8098 96.6873 19.3383 97.1253 20.0312C97.5632 20.7241 97.7822 21.5521 97.7822 22.5151V22.797C97.7822 23.7483 97.5632 24.5704 97.1253 25.2633C96.6873 25.9562 96.06 26.4906 95.2433 26.8664C94.4384 27.2422 93.4796 27.4301 92.3669 27.4301H90.3251ZM87.3778 30.8478V17.882H90.6802V30.8478H87.3778Z" fill="white"/>
<g clip-path="url(#clip0_11425_467)">
<path d="M0 10.4C0 4.65624 4.5269 0 10.1111 0H28.7778C34.362 0 38.8889 4.65624 38.8889 10.4V29.6C38.8889 35.3438 34.362 40 28.7778 40H10.1111C4.5269 40 0 35.3438 0 29.6V10.4Z" fill="#3CC6F1"/>
<path d="M13.9303 17.2449H21.222C21.4013 17.2449 21.5655 17.1682 21.7146 17.0149C21.8647 16.8605 21.9398 16.6916 21.9398 16.5082C21.9398 16.3238 21.8647 16.1549 21.7146 16.0016C21.5655 15.8471 21.4013 15.7699 21.222 15.7699H13.9303C13.7521 15.7699 13.5879 15.8471 13.4377 16.0016C13.2887 16.1549 13.2141 16.3238 13.2141 16.5082C13.2141 16.6916 13.2887 16.8605 13.4377 17.0149C13.5879 17.1682 13.7521 17.2449 13.9303 17.2449ZM13.9303 13.7199H21.222C21.4013 13.7199 21.5655 13.6427 21.7146 13.4882C21.8647 13.3349 21.9398 13.166 21.9398 12.9816C21.9398 12.7982 21.8647 12.6293 21.7146 12.4749C21.5655 12.3216 21.4013 12.2449 21.222 12.2449H13.9303C13.7521 12.2449 13.5879 12.3216 13.4377 12.4749C13.2887 12.6293 13.2141 12.7982 13.2141 12.9816C13.2141 13.166 13.2887 13.3349 13.4377 13.4882C13.5879 13.6427 13.7521 13.7199 13.9303 13.7199ZM28.2333 18.3982V11.0916H29.2315C29.9509 11.0916 30.5667 11.3549 31.0787 11.8816C31.5918 12.4093 31.8484 13.0432 31.8484 13.7832V13.9116H34.59C34.8201 13.9116 35.013 13.9916 35.1685 14.1516C35.323 14.3116 35.4002 14.5099 35.4002 14.7466C35.4002 14.9832 35.323 15.181 35.1685 15.3399C35.013 15.4988 34.8201 15.5782 34.59 15.5782H31.8484V15.7066C31.8484 16.4466 31.5918 17.0799 31.0787 17.6066C30.5667 18.1343 29.9509 18.3982 29.2315 18.3982H28.2333ZM20.8169 24.0399H14.3354V21.0899H13.0278C11.6904 21.0899 10.5454 20.601 9.5926 19.6232C8.64198 18.6432 8.16667 17.4655 8.16667 16.0899V13.3999C8.16667 12.0255 8.64198 10.8488 9.5926 9.8699C10.5432 8.89101 11.6883 8.40101 13.0278 8.3999H24.3704C25.0898 8.3999 25.7056 8.66379 26.2176 9.19157C26.7307 9.71824 26.9873 10.3516 26.9873 11.0916V18.3999C26.9873 19.141 26.7307 19.7749 26.2176 20.3016C25.7056 20.8293 25.0898 21.0932 24.3704 21.0932H20.8169V24.0399ZM13.6808 31.0899C13.1363 31.0899 12.6729 30.8938 12.2905 30.5016C11.9092 30.1093 11.7185 29.6327 11.7185 29.0716V27.3416C11.7185 26.7805 11.9092 26.3038 12.2905 25.9116C12.6729 25.5182 13.1363 25.3216 13.6808 25.3216H21.4715C22.0171 25.3216 22.4805 25.5182 22.8618 25.9116C23.2442 26.3038 23.4354 26.7805 23.4354 27.3416V29.0716C23.4354 29.6327 23.2442 30.1093 22.8618 30.5016C22.4805 30.8949 22.0171 31.0916 21.4715 31.0916L13.6808 31.0899Z" fill="white"/>
</g>
<defs>
<clipPath id="clip0_11425_467">
<rect width="38.8889" height="40" fill="white"/>
</clipPath>
</defs>
</svg>
