<svg width="118" height="48" viewBox="0 0 118 48" fill="none" xmlns="http://www.w3.org/2000/svg">
<path d="M56.9181 17.28C56.3052 17.28 55.7789 17.1743 55.3393 16.9629C54.8998 16.7453 54.5376 16.4624 54.2528 16.1142C53.968 15.7598 53.7575 15.3774 53.6213 14.967C53.4851 14.5567 53.417 14.1587 53.417 13.7732V13.5681C53.417 13.139 53.4851 12.7193 53.6213 12.309C53.7637 11.8924 53.9773 11.5162 54.2621 11.1805C54.5531 10.8447 54.9152 10.5774 55.3486 10.3784C55.782 10.1795 56.2897 10.08 56.8717 10.08C57.4908 10.08 58.0387 10.1981 58.5154 10.4344C58.9983 10.6644 59.3853 10.9909 59.6763 11.4137C59.9673 11.8302 60.1375 12.3152 60.1871 12.8686H58.4597C58.4164 12.6323 58.3235 12.4271 58.1811 12.253C58.0387 12.0789 57.8561 11.9453 57.6332 11.852C57.4103 11.7525 57.1565 11.7028 56.8717 11.7028C56.6054 11.7028 56.364 11.7494 56.1473 11.8427C55.9368 11.9359 55.7573 12.0696 55.6087 12.2437C55.4663 12.4116 55.3548 12.6168 55.2743 12.8592C55.2 13.1017 55.1629 13.3753 55.1629 13.68C55.1629 13.9846 55.2 14.2582 55.2743 14.5007C55.3548 14.7432 55.4694 14.9515 55.618 15.1256C55.7727 15.2997 55.9585 15.4333 56.1752 15.5266C56.3919 15.6137 56.6395 15.6572 56.9181 15.6572C57.3515 15.6572 57.7168 15.5515 58.0139 15.3401C58.3173 15.1287 58.5 14.8458 58.5619 14.4914H60.2892C60.2335 15.0012 60.0632 15.4675 59.7784 15.8903C59.4936 16.3131 59.1098 16.652 58.6269 16.9069C58.144 17.1556 57.5744 17.28 56.9181 17.28Z" fill="#3CC6F1"/>
<path d="M64.7178 17.28C64.0987 17.28 63.56 17.1743 63.1019 16.9629C62.6438 16.7453 62.263 16.4624 61.9596 16.1142C61.6563 15.7598 61.4303 15.3774 61.2817 14.967C61.1331 14.5567 61.0588 14.1587 61.0588 13.7732V13.5681C61.0588 13.139 61.1362 12.7193 61.291 12.309C61.4458 11.8924 61.6779 11.5162 61.9875 11.1805C62.297 10.8447 62.6778 10.5774 63.1298 10.3784C63.5879 10.1795 64.1173 10.08 64.7178 10.08C65.3122 10.08 65.8353 10.1795 66.2873 10.3784C66.7454 10.5774 67.1293 10.8447 67.4388 11.1805C67.7484 11.5162 67.9806 11.8924 68.1353 12.309C68.2963 12.7193 68.3768 13.139 68.3768 13.5681V13.7732C68.3768 14.1587 68.2994 14.5567 68.1446 14.967C67.996 15.3774 67.7701 15.7598 67.4667 16.1142C67.1633 16.4624 66.7826 16.7453 66.3244 16.9629C65.8663 17.1743 65.3307 17.28 64.7178 17.28ZM64.7178 15.6572C65.015 15.6572 65.2812 15.6074 65.5165 15.508C65.7517 15.4085 65.9529 15.2686 66.1201 15.0883C66.2873 14.908 66.4142 14.6997 66.5009 14.4634C66.5875 14.2209 66.6309 13.9598 66.6309 13.68C66.6309 13.3815 66.5845 13.1111 66.4916 12.8686C66.4049 12.6261 66.278 12.4178 66.1108 12.2437C65.9437 12.0696 65.7424 11.9359 65.5072 11.8427C65.2719 11.7494 65.0088 11.7028 64.7178 11.7028C64.4206 11.7028 64.1544 11.7494 63.9191 11.8427C63.6839 11.9359 63.4827 12.0696 63.3155 12.2437C63.1483 12.4178 63.0214 12.6261 62.9347 12.8686C62.8481 13.1111 62.8047 13.3815 62.8047 13.68C62.8047 13.9598 62.8481 14.2209 62.9347 14.4634C63.0214 14.6997 63.1483 14.908 63.3155 15.0883C63.4827 15.2686 63.6839 15.4085 63.9191 15.508C64.1544 15.6074 64.4206 15.6572 64.7178 15.6572Z" fill="#3CC6F1"/>
<path d="M69.6154 17.0934V10.2852H72.4479L74.7045 15.7131H75.0296L74.8438 15.881V10.2852H76.4598V17.0934H73.6087L71.352 11.6655H71.027L71.2127 11.4976V17.0934H69.6154Z" fill="#3CC6F1"/>
<path d="M80.4426 17.28C79.8111 17.28 79.2787 17.1805 78.8453 16.9815C78.4181 16.7826 78.0931 16.5121 77.8702 16.1701C77.6535 15.8219 77.5452 15.424 77.5452 14.9763H79.2168C79.2168 15.138 79.2601 15.2872 79.3468 15.424C79.4397 15.5546 79.5759 15.6572 79.7554 15.7318C79.935 15.8064 80.164 15.8437 80.4426 15.8437C80.6841 15.8437 80.8884 15.8126 81.0556 15.7504C81.2289 15.6883 81.3589 15.6012 81.4456 15.4893C81.5385 15.3774 81.5849 15.2437 81.5849 15.0883C81.5849 14.8893 81.5013 14.737 81.3342 14.6313C81.167 14.5193 80.8853 14.4478 80.4891 14.4168L80.0526 14.3795C79.353 14.3173 78.7958 14.0966 78.381 13.7173C77.9662 13.338 77.7588 12.8344 77.7588 12.2064C77.7588 11.7587 77.8609 11.3763 78.0652 11.0592C78.2757 10.7421 78.5698 10.4997 78.9475 10.3318C79.3251 10.1639 79.7709 10.08 80.2848 10.08C80.842 10.08 81.3125 10.1732 81.6964 10.3598C82.0864 10.5463 82.3836 10.8105 82.5879 11.1525C82.7922 11.4883 82.8944 11.88 82.8944 12.3276H81.2227C81.2227 12.1784 81.1856 12.0416 81.1113 11.9173C81.037 11.7929 80.9287 11.6966 80.7863 11.6282C80.6501 11.5535 80.4829 11.5162 80.2848 11.5162C80.099 11.5162 79.9412 11.5473 79.8111 11.6095C79.6873 11.6655 79.5914 11.7463 79.5233 11.852C79.4613 11.9577 79.4304 12.0758 79.4304 12.2064C79.4304 12.3805 79.4892 12.5297 79.6068 12.6541C79.7245 12.7784 79.9288 12.853 80.2198 12.8779L80.6562 12.9152C81.1639 12.9587 81.6128 13.0706 82.0028 13.251C82.3929 13.425 82.6993 13.6644 82.9222 13.9691C83.1451 14.2738 83.2565 14.6468 83.2565 15.0883C83.2565 15.5297 83.142 15.9152 82.9129 16.2447C82.6901 16.5743 82.3681 16.8292 81.9471 17.0095C81.5323 17.1898 81.0308 17.28 80.4426 17.28Z" fill="#3CC6F1"/>
<path d="M85.5022 17.0934V11.6095H87.2295V17.0934H85.5022ZM83.6448 11.796V10.2852H89.0869V11.796H83.6448Z" fill="#3CC6F1"/>
<path d="M90.1557 17.0934V10.2292H91.883V17.0934H90.1557ZM94.2419 17.0934L92.3381 14.2023H94.214L96.2292 17.0934H94.2419ZM91.4465 15.0043V13.6706H93.0717C93.276 13.6706 93.4525 13.6302 93.6011 13.5494C93.7497 13.4686 93.8642 13.3535 93.9447 13.2043C94.0314 13.0551 94.0747 12.881 94.0747 12.682C94.0747 12.4769 94.0314 12.2997 93.9447 12.1504C93.8642 12.0012 93.7497 11.8862 93.6011 11.8054C93.4525 11.7245 93.276 11.6841 93.0717 11.6841H91.4465V10.2292H92.9696C93.5577 10.2292 94.0654 10.3193 94.4926 10.4997C94.9198 10.6738 95.2479 10.9349 95.477 11.2831C95.7061 11.625 95.8206 12.051 95.8206 12.5608V12.71C95.8206 13.2199 95.703 13.6458 95.4677 13.9877C95.2386 14.3235 94.9105 14.5784 94.4833 14.7525C94.0623 14.9204 93.5577 15.0043 92.9696 15.0043H91.4465Z" fill="#3CC6F1"/>
<path d="M100.051 17.28C99.401 17.28 98.85 17.1587 98.398 16.9162C97.9522 16.6738 97.6117 16.3318 97.3765 15.8903C97.1412 15.4427 97.0236 14.9142 97.0236 14.3048V10.2852H98.7509V14.3421C98.7509 14.6095 98.8004 14.8427 98.8995 15.0416C99.0047 15.2406 99.1533 15.3929 99.3453 15.4986C99.5372 15.6043 99.7725 15.6572 100.051 15.6572C100.33 15.6572 100.565 15.6043 100.757 15.4986C100.949 15.3929 101.094 15.2437 101.193 15.051C101.292 14.852 101.342 14.6157 101.342 14.3421V10.2852H103.069V14.3048C103.069 14.9142 102.952 15.4427 102.716 15.8903C102.487 16.3318 102.147 16.6738 101.695 16.9162C101.249 17.1587 100.701 17.28 100.051 17.28Z" fill="#3CC6F1"/>
<path d="M107.681 17.28C107.068 17.28 106.542 17.1743 106.102 16.9629C105.663 16.7453 105.301 16.4624 105.016 16.1142C104.731 15.7598 104.52 15.3774 104.384 14.967C104.248 14.5567 104.18 14.1587 104.18 13.7732V13.5681C104.18 13.139 104.248 12.7193 104.384 12.309C104.527 11.8924 104.74 11.5162 105.025 11.1805C105.316 10.8447 105.678 10.5774 106.112 10.3784C106.545 10.1795 107.053 10.08 107.635 10.08C108.254 10.08 108.802 10.1981 109.278 10.4344C109.761 10.6644 110.148 10.9909 110.439 11.4137C110.73 11.8302 110.9 12.3152 110.95 12.8686H109.223C109.179 12.6323 109.086 12.4271 108.944 12.253C108.802 12.0789 108.619 11.9453 108.396 11.852C108.173 11.7525 107.919 11.7028 107.635 11.7028C107.368 11.7028 107.127 11.7494 106.91 11.8427C106.7 11.9359 106.52 12.0696 106.372 12.2437C106.229 12.4116 106.118 12.6168 106.037 12.8592C105.963 13.1017 105.926 13.3753 105.926 13.68C105.926 13.9846 105.963 14.2582 106.037 14.5007C106.118 14.7432 106.232 14.9515 106.381 15.1256C106.536 15.2997 106.721 15.4333 106.938 15.5266C107.155 15.6137 107.402 15.6572 107.681 15.6572C108.114 15.6572 108.48 15.5515 108.777 15.3401C109.08 15.1287 109.263 14.8458 109.325 14.4914H111.052C110.996 15.0012 110.826 15.4675 110.541 15.8903C110.257 16.3131 109.873 16.652 109.39 16.9069C108.907 17.1556 108.337 17.28 107.681 17.28Z" fill="#3CC6F1"/>
<path d="M113.439 17.0934V11.6095H115.167V17.0934H113.439ZM111.582 11.796V10.2852H117.024V11.796H111.582Z" fill="#3CC6F1"/>
<path d="M59.5663 37.44C58.1249 37.44 56.9096 37.2145 55.9204 36.7635C54.9453 36.3125 54.2034 35.6995 53.6946 34.9244C53.2 34.1351 52.9527 33.2332 52.9527 32.2185H56.7682C56.7682 32.5849 56.8672 32.9231 57.065 33.2332C57.277 33.5291 57.5879 33.7617 57.9977 33.9308C58.4075 34.0999 58.9304 34.1845 59.5663 34.1845C60.1174 34.1845 60.5838 34.114 60.9653 33.9731C61.361 33.8321 61.6578 33.6348 61.8556 33.3812C62.0676 33.1275 62.1736 32.8245 62.1736 32.4721C62.1736 32.0211 61.9828 31.6759 61.6012 31.4363C61.2197 31.1826 60.5767 31.0205 59.6723 30.9501L58.676 30.8655C57.0791 30.7246 55.8073 30.2243 54.8605 29.3646C53.9137 28.5049 53.4403 27.3633 53.4403 25.9399C53.4403 24.9252 53.6734 24.0585 54.1398 23.3397C54.6202 22.6209 55.2915 22.0713 56.1535 21.6908C57.0155 21.3103 58.033 21.12 59.2059 21.12C60.4778 21.12 61.5518 21.3314 62.4279 21.7542C63.3182 22.177 63.9965 22.776 64.4629 23.5511C64.9292 24.3121 65.1624 25.2 65.1624 26.2147H61.3469C61.3469 25.8765 61.2621 25.5664 61.0925 25.2846C60.9229 25.0027 60.6756 24.7843 60.3506 24.6292C60.0397 24.4601 59.6581 24.3756 59.2059 24.3756C58.782 24.3756 58.4216 24.446 58.1249 24.587C57.8422 24.7138 57.6232 24.897 57.4678 25.1366C57.3264 25.3762 57.2558 25.6439 57.2558 25.9399C57.2558 26.3345 57.39 26.6728 57.6585 26.9546C57.927 27.2365 58.3934 27.4056 59.0576 27.462L60.0538 27.5465C61.2126 27.6452 62.2371 27.8989 63.1274 28.3076C64.0177 28.7022 64.7172 29.2448 65.226 29.9353C65.7347 30.6259 65.9891 31.4715 65.9891 32.4721C65.9891 33.4728 65.7276 34.3465 65.2048 35.0935C64.696 35.8404 63.9612 36.4182 63.0002 36.827C62.0534 37.2357 60.9088 37.44 59.5663 37.44Z" fill="#171B24"/>
<path d="M78.3109 37.0172V21.5851H82.2536V37.0172H78.3109ZM68.4753 37.0172V21.5851H72.418V37.0172H68.4753ZM71.7397 30.9501V27.5254H78.9892V30.9501H71.7397Z" fill="#171B24"/>
<path d="M93.4237 37.44C92.0106 37.44 90.7811 37.2004 89.7354 36.7213C88.6897 36.228 87.8206 35.5867 87.1281 34.7975C86.4357 33.9942 85.9199 33.1275 85.5807 32.1973C85.2416 31.2672 85.072 30.3652 85.072 29.4914V29.0263C85.072 28.0539 85.2487 27.1026 85.6019 26.1724C85.9552 25.2282 86.4852 24.3756 87.1917 23.6145C87.8983 22.8535 88.7674 22.2475 89.799 21.7965C90.8447 21.3455 92.053 21.12 93.4237 21.12C94.7804 21.12 95.9745 21.3455 97.0061 21.7965C98.0518 22.2475 98.928 22.8535 99.6346 23.6145C100.341 24.3756 100.871 25.2282 101.224 26.1724C101.592 27.1026 101.775 28.0539 101.775 29.0263V29.4914C101.775 30.3652 101.599 31.2672 101.246 32.1973C100.906 33.1275 100.391 33.9942 99.6981 34.7975C99.0057 35.5867 98.1366 36.228 97.0909 36.7213C96.0451 37.2004 94.8228 37.44 93.4237 37.44ZM93.4237 33.7617C94.1021 33.7617 94.7097 33.6489 95.2467 33.4234C95.7837 33.1979 96.243 32.8808 96.6245 32.4721C97.0061 32.0634 97.2958 31.5913 97.4936 31.0558C97.6915 30.5061 97.7904 29.9142 97.7904 29.28C97.7904 28.6035 97.6844 27.9905 97.4724 27.4408C97.2746 26.8912 96.9849 26.4191 96.6033 26.0245C96.2218 25.6299 95.7625 25.3268 95.2255 25.1155C94.6885 24.9041 94.0879 24.7984 93.4237 24.7984C92.7454 24.7984 92.1378 24.9041 91.6008 25.1155C91.0638 25.3268 90.6045 25.6299 90.223 26.0245C89.8414 26.4191 89.5517 26.8912 89.3539 27.4408C89.156 27.9905 89.0571 28.6035 89.0571 29.28C89.0571 29.9142 89.156 30.5061 89.3539 31.0558C89.5517 31.5913 89.8414 32.0634 90.223 32.4721C90.6045 32.8808 91.0638 33.1979 91.6008 33.4234C92.1378 33.6489 92.7454 33.7617 93.4237 33.7617Z" fill="#171B24"/>
<path d="M108.121 32.9161V29.5337H110.665C111.145 29.5337 111.562 29.4421 111.916 29.2589C112.269 29.0616 112.544 28.7867 112.742 28.4344C112.94 28.0821 113.039 27.6663 113.039 27.1872C113.039 26.6939 112.94 26.2711 112.742 25.9188C112.544 25.5664 112.269 25.2987 111.916 25.1155C111.562 24.9322 111.145 24.8406 110.665 24.8406H108.121V21.4582H110.559C111.887 21.4582 113.032 21.6837 113.993 22.1347C114.968 22.5716 115.717 23.2058 116.24 24.0373C116.763 24.8688 117.024 25.8624 117.024 27.018V27.3563C117.024 28.4978 116.763 29.4844 116.24 30.3159C115.717 31.1474 114.968 31.7886 113.993 32.2396C113.032 32.6906 111.887 32.9161 110.559 32.9161H108.121ZM104.603 37.0172V21.4582H108.545V37.0172H104.603Z" fill="#171B24"/>
<g clip-path="url(#clip0_11425_17)">
<path d="M0 12.48C0 5.58749 5.40456 0 12.0714 0H34.3571C41.024 0 46.4286 5.58749 46.4286 12.48V35.52C46.4286 42.4125 41.024 48 34.3571 48H12.0714C5.40456 48 0 42.4125 0 35.52V12.48Z" fill="#3CC6F1"/>
<path d="M16.6311 20.694H25.3365C25.5505 20.694 25.7466 20.602 25.9246 20.418C26.1038 20.2327 26.1934 20.03 26.1934 19.81C26.1934 19.5887 26.1038 19.386 25.9246 19.202C25.7466 19.0167 25.5505 18.924 25.3365 18.924H16.6311C16.4183 18.924 16.2223 19.0167 16.043 19.202C15.865 19.386 15.776 19.5887 15.776 19.81C15.776 20.03 15.865 20.2327 16.043 20.418C16.2223 20.602 16.4183 20.694 16.6311 20.694ZM16.6311 16.464H25.3365C25.5505 16.464 25.7466 16.3713 25.9246 16.186C26.1038 16.002 26.1934 15.7993 26.1934 15.578C26.1934 15.358 26.1038 15.1553 25.9246 14.97C25.7466 14.786 25.5505 14.694 25.3365 14.694H16.6311C16.4183 14.694 16.2223 14.786 16.043 14.97C15.865 15.1553 15.776 15.358 15.776 15.578C15.776 15.7993 15.865 16.002 16.043 16.186C16.2223 16.3713 16.4183 16.464 16.6311 16.464ZM33.7071 22.078V13.31H34.8988C35.7577 13.31 36.4929 13.626 37.1042 14.258C37.7168 14.8913 38.0231 15.652 38.0231 16.54V16.694H41.2963C41.571 16.694 41.8012 16.79 41.9869 16.982C42.1713 17.174 42.2635 17.412 42.2635 17.696C42.2635 17.98 42.1713 18.2173 41.9869 18.408C41.8012 18.5987 41.571 18.694 41.2963 18.694H38.0231V18.848C38.0231 19.736 37.7168 20.496 37.1042 21.128C36.4929 21.7613 35.7577 22.078 34.8988 22.078H33.7071ZM24.8528 28.848H17.1147V25.308H15.5536C13.9569 25.308 12.5899 24.7213 11.4524 23.548C10.3175 22.372 9.75 20.9587 9.75 19.308V16.08C9.75 14.4307 10.3175 13.0187 11.4524 11.844C12.5873 10.6693 13.9544 10.0813 15.5536 10.08H29.0952C29.9542 10.08 30.6893 10.3967 31.3006 11.03C31.9132 11.662 32.2195 12.422 32.2195 13.31V22.08C32.2195 22.9693 31.9132 23.73 31.3006 24.362C30.6893 24.9953 29.9542 25.312 29.0952 25.312H24.8528V28.848ZM16.3332 37.308C15.6832 37.308 15.1299 37.0727 14.6734 36.602C14.2181 36.1313 13.9905 35.5593 13.9905 34.886V32.81C13.9905 32.1367 14.2181 31.5647 14.6734 31.094C15.1299 30.622 15.6832 30.386 16.3332 30.386H25.6344C26.2857 30.386 26.8389 30.622 27.2942 31.094C27.7507 31.5647 27.979 32.1367 27.979 32.81V34.886C27.979 35.5593 27.7507 36.1313 27.2942 36.602C26.8389 37.074 26.2857 37.31 25.6344 37.31L16.3332 37.308Z" fill="white"/>
</g>
<defs>
<clipPath id="clip0_11425_17">
<rect width="46.4286" height="48" fill="white"/>
</clipPath>
</defs>
</svg>
