<svg width="80" height="80" viewBox="0 0 80 80" fill="none" xmlns="http://www.w3.org/2000/svg">
<g clip-path="url(#clip0_183_14101)">
<path d="M80 62.1808C80 71.9919 71.975 80.0186 62.1662 80.0186H17.8334C8.02475 80.0186 0 71.9919 0 62.1808V17.8373C0 8.02712 8.02475 0.000228882 17.8334 0.000228882H62.1662C71.975 0.000228882 80 8.02712 80 17.8373V62.1808Z" fill="#3CC6F1"/>
<path d="M40 67C44.1551 67 47.6899 64.4956 49 61H31C32.3101 64.4956 35.8449 67 40 67Z" fill="white"/>
<path fill-rule="evenodd" clip-rule="evenodd" d="M58.4235 33.5046C57.3386 33.8269 56.1895 34 55 34C48.3726 34 43 28.6274 43 22C43 21.0697 43.1058 20.1642 43.3062 19.2948C42.2306 19.1009 41.1257 19 40 19C30.3128 19 22.1615 26.4726 21.0389 36.3821L20.0043 45.5155C19.7472 47.7849 18.8274 49.9206 17.3665 51.6401C14.2663 55.2892 16.7824 61 21.4904 61H58.5096C63.2176 61 65.7337 55.2892 62.6335 51.6401C61.1726 49.9206 60.2528 47.785 59.9957 45.5155L58.9611 36.3821C58.8495 35.3972 58.6685 34.4364 58.4235 33.5046Z" fill="white"/>
<circle cx="55" cy="22" r="9" fill="white"/>
</g>
<defs>
<clipPath id="clip0_183_14101">
<rect width="80" height="80" fill="white"/>
</clipPath>
</defs>
</svg>
