<svg width="80" height="81" viewBox="0 0 80 81" fill="none" xmlns="http://www.w3.org/2000/svg">
<path d="M80 62.1805C80 71.9916 71.975 80.0183 62.1662 80.0183H17.8334C8.02475 80.0183 0 71.9916 0 62.1805V17.8371C0 8.02688 8.02475 -1.52588e-05 17.8334 -1.52588e-05H62.1662C71.975 -1.52588e-05 80 8.02688 80 17.8371V62.1805Z" fill="#3CC6F1"/>
<path d="M20.0851 33.8528C21.0082 28.9294 25.3071 25.3616 30.3164 25.3616H49.4717C54.481 25.3616 58.7799 28.9294 59.703 33.8528L63.6066 54.6721C64.8078 61.0783 59.8932 67.0001 53.3753 67.0001H26.4128C19.8949 67.0001 14.9803 61.0783 16.1815 54.6721L20.0851 33.8528Z" fill="white"/>
<path fill-rule="evenodd" clip-rule="evenodd" d="M30.1348 22.759C30.1348 17.3693 34.504 13 39.8938 13C45.2836 13 49.6528 17.3693 49.6528 22.759V30.5663C49.6528 31.6442 48.779 32.5181 47.701 32.5181C46.6231 32.5181 45.7492 31.6442 45.7492 30.5663V22.759C45.7492 19.5252 43.1277 16.9036 39.8938 16.9036C36.6599 16.9036 34.0384 19.5252 34.0384 22.759V30.5663C34.0384 31.6442 33.1645 32.5181 32.0866 32.5181C31.0086 32.5181 30.1348 31.6442 30.1348 30.5663V22.759Z" fill="white"/>
</svg>
