<svg width="80" height="80" viewBox="0 0 80 80" fill="none" xmlns="http://www.w3.org/2000/svg">
<g clip-path="url(#clip0_183_14107)">
<path d="M80 62.1808C80 71.9919 71.975 80.0186 62.1662 80.0186H17.8334C8.02475 80.0186 0 71.9919 0 62.1808V17.8373C0 8.02712 8.02475 0.000228882 17.8334 0.000228882H62.1662C71.975 0.000228882 80 8.02712 80 17.8373V62.1808Z" fill="#3CC6F1"/>
<path d="M18.6538 59.7308L22.6122 50.2308C22.9227 49.4855 23.6509 49 24.4583 49H55.5417C56.3491 49 57.0773 49.4855 57.3878 50.2308L61.3462 59.7308C61.8951 61.0481 60.9272 62.5 59.5 62.5H20.5C19.0728 62.5 18.1049 61.0481 18.6538 59.7308Z" fill="white"/>
<path d="M55.75 33.5C55.75 42.3366 45.9063 53.5 40 53.5C34.0938 53.5 24.25 42.3366 24.25 33.5C24.25 24.6634 31.3015 17.5 40 17.5C48.6985 17.5 55.75 24.6634 55.75 33.5Z" fill="white"/>
<path fill-rule="evenodd" clip-rule="evenodd" d="M40 18.5C31.8686 18.5 25.25 25.2008 25.25 33.5C25.25 37.5934 27.5577 42.3737 30.6829 46.179C32.2333 48.0668 33.948 49.6681 35.6072 50.789C37.2878 51.9245 38.8112 52.5 40 52.5C41.1888 52.5 42.7122 51.9245 44.3928 50.789C46.052 49.6681 47.7667 48.0668 49.3171 46.179C52.4423 42.3737 54.75 37.5934 54.75 33.5C54.75 25.2008 48.1314 18.5 40 18.5ZM23.25 33.5C23.25 24.1261 30.7344 16.5 40 16.5C49.2656 16.5 56.75 24.1261 56.75 33.5C56.75 38.2432 54.1359 43.4628 50.8626 47.4484C49.2138 49.456 47.3602 51.1979 45.5125 52.4463C43.6862 53.6801 41.7643 54.5 40 54.5C38.2357 54.5 36.3138 53.6801 34.4875 52.4463C32.6398 51.1979 30.7862 49.456 29.1374 47.4484C25.8641 43.4628 23.25 38.2432 23.25 33.5Z" fill="#3CC6F1"/>
<path d="M45.625 33.25C45.625 36.3566 43.1066 38.875 40 38.875C36.8934 38.875 34.375 36.3566 34.375 33.25C34.375 30.1434 36.8934 27.625 40 27.625C43.1066 27.625 45.625 30.1434 45.625 33.25Z" fill="#3CC6F1"/>
</g>
<defs>
<clipPath id="clip0_183_14107">
<rect width="80" height="80" fill="white"/>
</clipPath>
</defs>
</svg>
