<svg width="80" height="80" viewBox="0 0 80 80" fill="none" xmlns="http://www.w3.org/2000/svg">
<g clip-path="url(#clip0_183_14098)">
<path d="M80 62.1805C80 71.9916 71.975 80.0183 62.1662 80.0183H17.8334C8.02475 80.0183 0 71.9916 0 62.1805V17.8371C0 8.02688 8.02475 -1.52588e-05 17.8334 -1.52588e-05H62.1662C71.975 -1.52588e-05 80 8.02688 80 17.8371V62.1805Z" fill="#3CC6F1"/>
<path fill-rule="evenodd" clip-rule="evenodd" d="M55.6379 26.5558C55.2909 26.5146 54.9371 26.4934 54.5776 26.4934H51.3724L46.3986 19.8617C45.8394 19.1161 45.9905 18.0584 46.7361 17.4992C47.4817 16.94 48.5394 17.0911 49.0986 17.8367L55.6379 26.5558ZM30.6249 26.4934H27.4195C27.06 26.4934 26.7063 26.5146 26.3594 26.5557L32.8986 17.8367C33.4578 17.0911 34.5155 16.94 35.2611 17.4992C36.0067 18.0584 36.1578 19.1161 35.5986 19.8617L30.6249 26.4934Z" fill="white"/>
<path d="M54.5791 26.4932L27.4209 26.4932C22.3911 26.4932 18.4898 30.6422 18.5 35.4932H63.5C63.5102 30.6422 59.6089 26.4932 54.5791 26.4932Z" fill="white"/>
<path fill-rule="evenodd" clip-rule="evenodd" d="M59.6344 55.3112C58.7797 59.493 55.1313 62.4932 50.9005 62.4932H31.0994C26.8686 62.4932 23.2201 59.493 22.3655 55.3112L18.687 37.3112C18.5629 36.7041 18.5023 36.1011 18.5 35.5086L63.4999 35.5085C63.4976 36.1011 63.437 36.7041 63.3129 37.3112L59.6344 55.3112ZM30.3125 44.4932C30.3125 43.5612 31.068 42.8057 32 42.8057H50C50.932 42.8057 51.6875 43.5612 51.6875 44.4932C51.6875 45.4251 50.932 46.1807 50 46.1807H32C31.068 46.1807 30.3125 45.4251 30.3125 44.4932ZM34.25 51.8046C33.318 51.8046 32.5625 52.5601 32.5625 53.4921C32.5625 54.424 33.318 55.1796 34.25 55.1796H47.75C48.682 55.1796 49.4375 54.424 49.4375 53.4921C49.4375 52.5601 48.682 51.8046 47.75 51.8046H34.25Z" fill="white"/>
</g>
<defs>
<clipPath id="clip0_183_14098">
<rect width="80" height="80" fill="white"/>
</clipPath>
</defs>
</svg>
